<svg width="34" height="40" viewBox="0 0 34 40" fill="none" xmlns="http://www.w3.org/2000/svg">
<path d="M7.27831 32.5C6.09775 32.5 5.25863 31.9734 4.76094 30.9201C4.26326 29.8669 4.38479 28.8889 5.12553 27.9861L12.8339 18.6111V10.2778H11.445C11.0515 10.2778 10.7216 10.1447 10.4554 9.87847C10.1892 9.61227 10.0561 9.28241 10.0561 8.88889C10.0561 8.49537 10.1892 8.16551 10.4554 7.8993C10.7216 7.6331 11.0515 7.5 11.445 7.5H22.5561C22.9496 7.5 23.2795 7.6331 23.5457 7.8993C23.8119 8.16551 23.945 8.49537 23.945 8.88889C23.945 9.28241 23.8119 9.61227 23.5457 9.87847C23.2795 10.1447 22.9496 10.2778 22.5561 10.2778H21.1672V18.6111L28.8755 27.9861C29.6163 28.8889 29.7378 29.8669 29.2401 30.9201C28.7424 31.9734 27.9033 32.5 26.7228 32.5H7.27831ZM7.27831 29.7222H26.7228L18.3894 19.5833V10.2778H15.6116V19.5833L7.27831 29.7222Z" fill="#1F5F41"/>
</svg>
