<svg width="19" height="23" viewBox="0 0 19 23" fill="none" xmlns="http://www.w3.org/2000/svg">
<path d="M7.18503 13.2813L9.50065 11.876L11.8163 13.2813L11.2027 10.649L13.2611 8.86771L10.5496 8.65001L9.50065 6.15626L8.45169 8.65001L5.74023 8.86771L7.79857 10.649L7.18503 13.2813ZM1.58398 19.4167V5.16667C1.58398 4.73126 1.73902 4.35851 2.04909 4.04844C2.35916 3.73837 2.7319 3.58334 3.16732 3.58334H15.834C16.2694 3.58334 16.6421 3.73837 16.9522 4.04844C17.2623 4.35851 17.4173 4.73126 17.4173 5.16667V14.6667C17.4173 15.1021 17.2623 15.4748 16.9522 15.7849C16.6421 16.095 16.2694 16.25 15.834 16.25H4.75065L1.58398 19.4167ZM4.07773 14.6667H15.834V5.16667H3.16732V15.5573L4.07773 14.6667Z" fill="#0E4D4B"/>
</svg>
