<svg width="19" height="23" viewBox="0 0 19 23" fill="none" xmlns="http://www.w3.org/2000/svg">
<path d="M6.80768 19.8125L5.30352 17.2792L2.45352 16.6458L2.7306 13.7167L0.791016 11.5L2.7306 9.28333L2.45352 6.35417L5.30352 5.72083L6.80768 3.1875L9.49935 4.33542L12.191 3.1875L13.6952 5.72083L16.5452 6.35417L16.2681 9.28333L18.2077 11.5L16.2681 13.7167L16.5452 16.6458L13.6952 17.2792L12.191 19.8125L9.49935 18.6646L6.80768 19.8125ZM7.4806 17.7938L9.49935 16.9229L11.5577 17.7938L12.666 15.8937L14.8431 15.3792L14.6452 13.1625L16.1098 11.5L14.6452 9.79792L14.8431 7.58125L12.666 7.10625L11.5181 5.20625L9.49935 6.07708L7.44102 5.20625L6.33268 7.10625L4.1556 7.58125L4.35352 9.79792L2.88893 11.5L4.35352 13.1625L4.1556 15.4188L6.33268 15.8937L7.4806 17.7938ZM8.6681 14.3104L13.141 9.8375L12.0327 8.68958L8.6681 12.0542L6.96602 10.3917L5.85768 11.5L8.6681 14.3104Z" fill="#F3D5B2"/>
</svg>
