<svg width="19" height="23" viewBox="0 0 19 23" fill="none" xmlns="http://www.w3.org/2000/svg">
<path d="M2.37435 17.8335C1.93893 17.8335 1.56619 17.6785 1.25612 17.3684C0.94605 17.0583 0.791016 16.6856 0.791016 16.2502C0.791016 15.8147 0.94605 15.442 1.25612 15.1319C1.56619 14.8219 1.93893 14.6668 2.37435 14.6668C2.45352 14.6668 2.52279 14.6668 2.58216 14.6668C2.64154 14.6668 2.70421 14.68 2.77018 14.7064L6.37227 11.1043C6.34588 11.0384 6.33268 10.9757 6.33268 10.9163C6.33268 10.8569 6.33268 10.7877 6.33268 10.7085C6.33268 10.2731 6.48772 9.90034 6.79779 9.59027C7.10786 9.2802 7.4806 9.12516 7.91602 9.12516C8.35143 9.12516 8.72418 9.2802 9.03424 9.59027C9.34431 9.90034 9.49935 10.2731 9.49935 10.7085C9.49935 10.7349 9.48615 10.8668 9.45977 11.1043L11.4785 13.1231C11.5445 13.0967 11.6072 13.0835 11.6665 13.0835C11.7259 13.0835 11.7952 13.0835 11.8743 13.0835C11.9535 13.0835 12.0228 13.0835 12.0822 13.0835C12.1415 13.0835 12.2042 13.0967 12.2702 13.1231L15.0806 10.3127C15.0542 10.2467 15.041 10.184 15.041 10.1246C15.041 10.0653 15.041 9.996 15.041 9.91683C15.041 9.48141 15.196 9.10867 15.5061 8.7986C15.8162 8.48853 16.1889 8.3335 16.6243 8.3335C17.0598 8.3335 17.4325 8.48853 17.7426 8.7986C18.0526 9.10867 18.2077 9.48141 18.2077 9.91683C18.2077 10.3522 18.0526 10.725 17.7426 11.0351C17.4325 11.3451 17.0598 11.5002 16.6243 11.5002C16.5452 11.5002 16.4759 11.5002 16.4165 11.5002C16.3572 11.5002 16.2945 11.487 16.2285 11.4606L13.4181 14.271C13.4445 14.337 13.4577 14.3996 13.4577 14.459C13.4577 14.5184 13.4577 14.5877 13.4577 14.6668C13.4577 15.1022 13.3026 15.475 12.9926 15.7851C12.6825 16.0951 12.3098 16.2502 11.8743 16.2502C11.4389 16.2502 11.0662 16.0951 10.7561 15.7851C10.4461 15.475 10.291 15.1022 10.291 14.6668C10.291 14.5877 10.291 14.5184 10.291 14.459C10.291 14.3996 10.3042 14.337 10.3306 14.271L8.31185 12.2522C8.24588 12.2786 8.1832 12.2918 8.12383 12.2918C8.06445 12.2918 7.99518 12.2918 7.91602 12.2918C7.88963 12.2918 7.75768 12.2786 7.52018 12.2522L3.9181 15.8543C3.94449 15.9203 3.95768 15.983 3.95768 16.0424C3.95768 16.1017 3.95768 16.171 3.95768 16.2502C3.95768 16.6856 3.80265 17.0583 3.49258 17.3684C3.18251 17.6785 2.80977 17.8335 2.37435 17.8335ZM3.16602 9.89704L2.67122 8.82829L1.60247 8.3335L2.67122 7.8387L3.16602 6.76995L3.66081 7.8387L4.72956 8.3335L3.66081 8.82829L3.16602 9.89704ZM11.8743 9.12516L11.1223 7.50225L9.49935 6.75016L11.1223 5.99808L11.8743 4.37516L12.6264 5.99808L14.2493 6.75016L12.6264 7.50225L11.8743 9.12516Z" fill="#0E4D4B"/>
</svg>
