<svg width="45" height="52" viewBox="0 0 45 52" fill="none" xmlns="http://www.w3.org/2000/svg">
<path d="M10.6359 36.8335L14.7886 29.6113C12.8025 29.6113 11.1023 28.9041 9.68793 27.4897C8.27358 26.0754 7.56641 24.3752 7.56641 22.3891C7.56641 20.4029 8.27358 18.7027 9.68793 17.2884C11.1023 15.874 12.8025 15.1668 14.7886 15.1668C16.7747 15.1668 18.475 15.874 19.8893 17.2884C21.3037 18.7027 22.0109 20.4029 22.0109 22.3891C22.0109 23.0812 21.9281 23.7206 21.7626 24.3075C21.5971 24.8943 21.3488 25.4585 21.0178 26.0002L14.7886 36.8335H10.6359ZM26.8859 36.8335L31.0386 29.6113C29.0525 29.6113 27.3523 28.9041 25.9379 27.4897C24.5236 26.0754 23.8164 24.3752 23.8164 22.3891C23.8164 20.4029 24.5236 18.7027 25.9379 17.2884C27.3523 15.874 29.0525 15.1668 31.0386 15.1668C33.0247 15.1668 34.725 15.874 36.1393 17.2884C37.5537 18.7027 38.2609 20.4029 38.2609 22.3891C38.2609 23.0812 38.1781 23.7206 38.0126 24.3075C37.8471 24.8943 37.5988 25.4585 37.2678 26.0002L31.0386 36.8335H26.8859ZM14.7886 25.0974C14.7886 25.0974 14.9767 25.0974 15.3529 25.0974C15.729 25.0974 16.1804 24.8341 16.707 24.3075C17.2337 23.7808 17.497 23.1414 17.497 22.3891C17.497 21.6367 17.2337 20.9973 16.707 20.4706C16.1804 19.944 15.5409 19.6807 14.7886 19.6807C14.0363 19.6807 13.3968 19.944 12.8702 20.4706C12.3436 20.9973 12.0803 21.6367 12.0803 22.3891C12.0803 23.1414 12.3436 23.7808 12.8702 24.3075C13.3968 24.8341 14.0363 25.0974 14.7886 25.0974ZM31.0386 25.0974C31.0386 25.0974 31.2267 25.0974 31.6029 25.0974C31.979 25.0974 32.4304 24.8341 32.957 24.3075C33.4837 23.7808 33.747 23.1414 33.747 22.3891C33.747 21.6367 33.4837 20.9973 32.957 20.4706C32.4304 19.944 31.7909 19.6807 31.0386 19.6807C30.2863 19.6807 29.6468 19.944 29.1202 20.4706C28.5936 20.9973 28.3303 21.6367 28.3303 22.3891C28.3303 23.1414 28.5936 23.7808 29.1202 24.3075C29.6468 24.8341 30.2863 25.0974 31.0386 25.0974Z" fill="#25B5AB" fill-opacity="0.7"/>
</svg>
